<?xml version="1.0" standalone="no"?>
<!DOCTYPE svg PUBLIC "-//W3C//DTD SVG 20010904//EN"
 "http://www.w3.org/TR/2001/REC-SVG-20010904/DTD/svg10.dtd">
<svg version="1.0" xmlns="http://www.w3.org/2000/svg"
 width="700.000000pt" height="700.000000pt" viewBox="0 0 700.000000 700.000000"
 preserveAspectRatio="xMidYMid meet">

<g transform="translate(0.000000,700.000000) scale(0.100000,-0.100000)"
fill="#000000" stroke="none">
<path d="M2410 3975 c0 -293 4 -505 9 -503 5 2 232 113 505 247 l496 245 -93
48 c-50 27 -278 144 -504 259 l-413 210 0 -506z"/>
<path d="M2918 2682 c-274 -136 -498 -249 -498 -252 0 -7 990 -513 994 -508 7
7 14 1008 8 1007 -4 0 -231 -112 -504 -247z"/>
</g>
</svg>
